<?xml version="1.0" standalone="no"?>
<!DOCTYPE svg PUBLIC "-//W3C//DTD SVG 20010904//EN"
 "http://www.w3.org/TR/2001/REC-SVG-20010904/DTD/svg10.dtd">
<svg version="1.0" xmlns="http://www.w3.org/2000/svg"
 width="896.000000pt" height="896.000000pt" viewBox="0 0 896.000000 896.000000"
 preserveAspectRatio="xMidYMid meet">
<metadata>
Created by potrace 1.14, written by Peter Selinger 2001-2017
</metadata>
<g transform="translate(0.000000,896.000000) scale(0.100000,-0.100000)"
fill="#000000" stroke="none">
<path d="M3907 5766 c-131 -48 -365 -332 -627 -761 -219 -360 -405 -606 -490
-650 -30 -15 -34 -15 -75 5 -89 43 -248 235 -511 616 -169 245 -249 352 -372
495 -141 165 -230 229 -317 229 -90 0 -110 -31 -95 -143 19 -141 40 -426 50
-692 8 -206 7 -464 -4 -1089 -9 -451 -13 -822 -11 -825 14 -13 135 -2 176 16
83 37 76 -2 90 556 6 274 10 782 7 1129 l-4 630 21 -26 c11 -14 63 -93 115
-176 403 -639 592 -881 754 -960 139 -69 246 -34 411 133 132 134 218 255 415
582 174 288 275 443 339 515 l40 45 -2 -965 c-1 -531 2 -1077 7 -1214 10 -285
10 -286 91 -286 55 0 102 19 133 52 22 24 23 33 32 314 25 781 33 1544 21
1866 -16 449 -26 568 -48 589 -25 24 -100 32 -146 15z"/>
<path d="M6322 5720 c-273 -38 -529 -166 -657 -328 -61 -77 -122 -202 -140
-287 -19 -93 -19 -265 0 -340 44 -169 183 -320 377 -409 91 -42 336 -120 713
-226 166 -46 320 -96 360 -115 135 -65 235 -166 272 -270 25 -71 22 -211 -5
-287 -65 -180 -266 -330 -528 -395 -92 -22 -299 -22 -416 1 -210 40 -384 122
-521 244 -134 119 -201 131 -291 52 -42 -38 -47 -79 -17 -138 69 -134 375
-288 702 -354 151 -30 454 -33 593 -5 258 52 457 155 605 312 118 128 165 244
164 410 -1 168 -46 300 -146 426 -122 152 -356 263 -852 404 -373 106 -505
161 -609 257 -46 42 -75 79 -98 126 -32 65 -33 70 -33 192 0 107 4 133 23 182
81 203 309 335 613 356 146 10 308 -1 404 -27 168 -47 271 -125 354 -272 24
-41 52 -81 63 -88 11 -7 47 -12 80 -12 67 0 115 22 136 62 27 52 -11 185 -79
270 -125 158 -431 255 -834 264 -93 2 -198 0 -233 -5z"/>
</g>
</svg>
