<svg aria-hidden="true" style="position: absolute; width: 0; height: 0; overflow: hidden;" version="1.1" xmlns="http://www.w3.org/2000/svg" xmlns:xlink="http://www.w3.org/1999/xlink">
<defs>
<symbol id="icon-logo" viewBox="0 0 41 32">
<path fill="#d1e8e2" style="fill: var(--color1, #d1e8e2)" d="M0 0h32v26.182h-32v-26.182z"></path>
<path fill="#ffcb9a" style="fill: var(--color2, #ffcb9a)" d="M17.455 8.727h23.273v23.273h-23.273v-23.273z"></path>
<path fill="#2c3531" style="fill: var(--color3, #2c3531)" d="M6.714 15.97c0-1.885-0.099-3.607-0.297-5.167 0-0.244 0.169-0.367 0.506-0.367s0.785 0.326 1.344 0.977c0.559 0.64 1.094 1.344 1.606 2.112s1.024 1.478 1.536 2.13c0.524 0.64 0.896 0.96 1.117 0.96s0.576-0.337 1.065-1.012c0.5-0.687 0.989-1.431 1.466-2.234 0.489-0.815 1.012-1.559 1.571-2.234 0.57-0.687 1.024-1.030 1.361-1.030 0.349 0 0.524 0.093 0.524 0.279 0.105 1.431 0.157 2.711 0.157 3.84s-0.006 2.048-0.017 2.758c-0.012 0.698-0.023 1.21-0.035 1.536 0 0.314-0.017 1.041-0.052 2.182-0.035 1.129-0.052 1.792-0.052 1.99-0.175 0.244-0.413 0.367-0.716 0.367-0.128 0-0.25-0.035-0.367-0.105-0.070-1.431-0.105-3.119-0.105-5.062s0.017-3.956 0.052-6.039c-0.233 0.186-0.564 0.623-0.995 1.309-0.419 0.675-0.826 1.35-1.222 2.025-0.396 0.663-0.844 1.268-1.344 1.815-0.5 0.535-0.966 0.803-1.396 0.803s-0.925-0.314-1.484-0.943c-0.547-0.628-1.158-1.478-1.833-2.548-0.663-1.082-1.1-1.757-1.309-2.025 0.058 0.977 0.087 1.996 0.087 3.055 0 1.047-0.006 1.78-0.017 2.199-0.012 1.862-0.047 3.555-0.105 5.079-0.186 0.244-0.477 0.367-0.873 0.367-0.105 0-0.204-0.017-0.297-0.052 0 0 0.041-2.321 0.122-6.964zM26.506 11.17c0.442-0.291 0.925-0.506 1.449-0.646s1.041-0.209 1.553-0.209c0.512 0 0.989 0.035 1.431 0.105 0.454 0.058 0.913 0.163 1.379 0.314 0.477 0.151 0.867 0.384 1.169 0.698s0.471 0.687 0.506 1.117c0.012 0.175-0.058 0.308-0.209 0.401-0.14 0.081-0.303 0.122-0.489 0.122-0.175 0-0.308-0.041-0.401-0.122-0.081-0.093-0.163-0.227-0.244-0.401-0.442-0.896-1.408-1.344-2.897-1.344-1.012 0-1.844 0.215-2.496 0.646-0.64 0.431-0.96 1.059-0.96 1.885 0 0.465 0.145 0.867 0.436 1.204 0.291 0.326 0.669 0.582 1.135 0.768 0.477 0.186 0.995 0.355 1.553 0.506 0.57 0.151 1.135 0.32 1.693 0.506 0.57 0.186 1.088 0.407 1.553 0.663 0.477 0.256 0.861 0.617 1.152 1.082 0.291 0.454 0.436 1.001 0.436 1.641 0 0.931-0.46 1.722-1.379 2.374-0.908 0.652-2.054 0.977-3.439 0.977-1.071 0-2.118-0.227-3.142-0.681s-1.536-0.919-1.536-1.396c0-0.128 0.076-0.244 0.227-0.349 0.151-0.116 0.297-0.175 0.436-0.175 0.151 0 0.291 0.047 0.419 0.14 0.128 0.081 0.273 0.198 0.436 0.349s0.308 0.268 0.436 0.349c0.884 0.559 1.873 0.838 2.967 0.838 0.768 0 1.519-0.233 2.252-0.698 0.733-0.477 1.1-1.111 1.1-1.903 0-0.535-0.198-0.977-0.593-1.327-0.396-0.361-0.89-0.617-1.484-0.768-0.593-0.163-1.239-0.343-1.937-0.541-0.687-0.198-1.327-0.401-1.92-0.611s-1.088-0.547-1.484-1.012c-0.396-0.465-0.593-1.018-0.593-1.658 0-0.652 0.134-1.216 0.401-1.693 0.279-0.489 0.64-0.873 1.082-1.152z"></path>
</symbol>
<symbol id="icon-github" viewBox="0 0 32 32">
<path  d="M32 16c0 8.837-7.163 16-16 16s-16-7.163-16-16c0-8.837 7.163-16 16-16s16 7.163 16 16z"></path>
<path fill="#fff" style="fill: var(--color5, #fff)" d="M16 6.588c-5.169 0-9.412 4.242-9.412 9.412 0 4.411 3.095 8.419 7.206 9.412v-3.114c-0.407 0.089-0.782 0.092-1.197-0.030-0.556-0.164-1.008-0.535-1.344-1.1-0.214-0.361-0.593-0.752-0.988-0.723l-0.097-1.099c0.855-0.073 1.595 0.521 2.034 1.259 0.195 0.328 0.419 0.52 0.708 0.605 0.278 0.082 0.578 0.043 0.926-0.080 0.088-0.698 0.407-0.959 0.648-1.326v-0.001c-2.451-0.366-3.428-1.666-3.816-2.693-0.514-1.363-0.238-3.066 0.671-4.142 0.018-0.021 0.050-0.076 0.037-0.114-0.417-1.258 0.091-2.299 0.11-2.41 0.481 0.142 0.559-0.143 2.089 0.786l0.264 0.159c0.111 0.066 0.076 0.028 0.186 0.020 0.639-0.173 1.312-0.269 1.975-0.278 0.668 0.009 1.337 0.104 2.002 0.285l0.086 0.009c-0.007-0.001 0.023-0.005 0.075-0.036 1.911-1.157 1.842-0.779 2.355-0.946 0.019 0.111 0.519 1.169 0.107 2.411-0.056 0.171 1.657 1.739 0.708 4.256-0.388 1.027-1.365 2.328-3.816 2.693v0.001c0.314 0.479 0.692 0.734 0.69 1.722v3.887c4.111-0.993 7.206-5 7.206-9.412 0-5.169-4.242-9.412-9.412-9.412v0z"></path>
</symbol>
<symbol id="icon-linkedin" viewBox="0 0 32 32">
<path fill="#0077b5" style="fill: var(--color6, #0077b5)" d="M6.563 0h18.875c3.62 0.010 6.552 2.942 6.563 6.561v18.876c-0.010 3.62-2.942 6.552-6.561 6.563h-18.876c-3.62-0.010-6.552-2.942-6.563-6.561v-18.876c0.010-3.62 2.942-6.552 6.561-6.563h0.001z"></path>
<path fill="#fff" style="fill: var(--color5, #fff)" d="M7.924 13.117h3.461v10.38h-3.461v-10.38z"></path>
<path fill="#fff" style="fill: var(--color5, #fff)" d="M11.385 10.232c0 0.001 0 0.002 0 0.003 0 0.956-0.775 1.732-1.732 1.732s-1.732-0.775-1.732-1.732c0-0.956 0.775-1.732 1.732-1.732 0.001 0 0.002 0 0.003 0h-0c0.955 0 1.729 0.774 1.729 1.729v0z"></path>
<path fill="#fff" style="fill: var(--color5, #fff)" d="M13.693 13.117h3.193v1.635h0.042c0.445-0.797 1.531-1.635 3.154-1.635 3.367 0 3.992 2.096 3.992 4.823v5.557h-3.326v-4.924c0-1.174-0.023-2.688-1.737-2.688s-1.997 1.279-1.997 2.604v5.008h-3.32v-10.38z"></path>
</symbol>
<symbol id="icon-email" viewBox="0 0 44 32">
<path d="M2.539 0h39.174c1.393 0.014 2.517 1.145 2.521 2.538v26.923c0 0.005 0 0.012 0 0.018 0 0.531-0.164 1.024-0.445 1.43l0.005-0.008c-0.055 0.141-0.136 0.261-0.237 0.36l-0 0c-0.068 0.065-0.146 0.121-0.232 0.163l-0.005 0.002c-0.435 0.369-1.003 0.594-1.624 0.594h-39.156c-1.387-0.014-2.507-1.134-2.521-2.519v-26.963c0.004-1.394 1.128-2.525 2.519-2.539h0.001zM2.431 28.392l13.245-13.764-13.245-11.192v24.956zM17.671 16.346l-14.153 13.706h37.092l-13.522-13.706-3.961 3.317c-0.167 0.14-0.384 0.224-0.621 0.224s-0.454-0.085-0.623-0.226l0.002 0.001-4.213-3.317zM29.051 14.603l12.77 13.901v-25.19l-12.77 11.29zM3.677 1.948l18.791 15.229 17.963-15.229z"></path>
</symbol>
<symbol id="icon-phone" viewBox="0 0 31 32">
<path d="M9.086 15.135c1.959 3.501 4.261 5.983 7.854 7.855 0.312-0.28 0.478-0.511 0.736-0.845 1.019-1.342 2.288-2.953 4.367-1.982 1.356 0.686 4.022 2.129 5.149 2.965 0.429 0.302 0.739 0.682 0.948 1.114 0.444 0.92 0.386 1.976 0.104 2.931-0.145 0.492-0.357 0.979-0.607 1.421-0.942 1.654-2.505 2.517-4.309 2.985-2.193 0.567-4.174 0.583-6.354-0.089-1.645-0.509-3.173-1.331-4.633-2.232l-0.188-0.116c-0.708-0.441-1.469-0.915-2.248-1.495l-0.006-0.005c-1.501-1.13-3.012-2.52-4.382-4.075-1.269-1.44-2.425-3.032-3.348-4.7-0.846-1.53-1.494-3.136-1.855-4.763-0.514-2.317-0.475-4.984 0.664-7.121 1.334-2.501 3.756-3.523 6.468-3.284l0.067 0.008c0.469 0.059 0.895 0.345 1.125 0.758l3.085 5.214c0.302 0.408 0.477 0.828 0.536 1.259 0.225 1.656-1.133 2.675-2.295 3.526-0.396 0.288-0.838 0.609-0.881 0.671zM14.896 11.87c-0.463-0.12-0.741-0.593-0.622-1.056s0.593-0.742 1.056-0.622c2.759 0.719 5.266 2.991 6.123 5.727 0.142 0.457-0.113 0.945-0.571 1.087s-0.945-0.113-1.087-0.571c-0.677-2.161-2.725-4-4.9-4.566zM15.011 6.555c-0.472-0.080-0.79-0.529-0.71-1.002s0.529-0.791 1.002-0.71c5.34 0.925 10.059 5.417 11.39 10.649 0.118 0.465-0.163 0.938-0.628 1.057s-0.939-0.163-1.057-0.629c-1.166-4.583-5.316-8.553-9.997-9.365zM15.569 1.731c-0.476-0.054-0.818-0.485-0.764-0.962s0.485-0.818 0.961-0.764c7.425 0.869 13.934 6.813 15.557 14.097 0.103 0.467-0.192 0.93-0.659 1.033s-0.93-0.192-1.032-0.659c-1.464-6.568-7.367-11.962-14.063-12.746zM7.48 15.953c-0.029-0.048-0.055-0.099-0.076-0.153-0.522-1.325 0.549-2.103 1.506-2.796 0.46-0.332 1.261-0.873 1.498-1.423 0.139-0.32 0.072-0.558-0.13-0.83l-0.081-0.116-3.045-5.148c-1.941-0.136-3.62 0.54-4.583 2.343-0.928 1.74-0.912 4.009-0.496 5.886 0.319 1.44 0.907 2.886 1.68 4.284 1.722 3.116 4.396 6.065 7.234 8.206 0.691 0.515 1.431 0.977 2.12 1.406l0.192 0.12c2.487 1.545 5.171 2.821 8.21 2.372 0.464-0.068 0.93-0.155 1.368-0.268 1.734-0.451 3.086-1.291 3.64-3.171 0.197-0.669 0.292-1.593-0.35-2.056-1.403-0.916-3.406-2.031-4.902-2.822-0.771-0.343-1.533 0.622-2.155 1.441-0.448 0.586-0.93 1.254-1.644 1.522-0.35 0.131-0.713 0.128-1.059-0.014l-0.116-0.049c-4.028-2.054-6.633-4.822-8.811-8.733z"></path>
</symbol>
<symbol id="icon-telegram" viewBox="0 0 32 32">
<path  d="M32 16c0 8.837-7.163 16-16 16s-16-7.163-16-16c0-8.837 7.163-16 16-16s16 7.163 16 16z"></path>
<path fill="#fefefe" style="fill: var(--color8, #fefefe)" d="M23.701 8.756l-2.855 14.392s-0.399 0.998-1.497 0.519l-6.587-5.050-2.395-1.158-4.032-1.357s-0.619-0.22-0.679-0.699c-0.060-0.479 0.699-0.739 0.699-0.739l16.029-6.288s1.317-0.579 1.317 0.379z"></path>
<path fill="#d4e6f1" style="fill: var(--color9, #d4e6f1)" d="M12.256 22.986s-0.192-0.018-0.432-0.777c-0.24-0.759-1.457-4.751-1.457-4.751l9.681-6.148s0.559-0.339 0.539 0c0 0 0.1 0.060-0.2 0.339s-7.605 6.847-7.605 6.847l-0.526 4.489z"></path>
<path fill="#b6d0e5" style="fill: var(--color10, #b6d0e5)" d="M15.288 20.553l-2.606 2.375s-0.204 0.154-0.427 0.058l0.499-4.413 2.533 1.979z"></path>
</symbol>
<symbol id="icon-css" viewBox="0 0 32 32">
<path fill="#2062af" style="fill: var(--color11, #2062af)" d="M27.555 28.889l-11.555 3.111-11.556-3.111-2.667-28.889h28.445z"></path>
<path fill="#3c9cd7" style="fill: var(--color12, #3c9cd7)" d="M16 2.34v27.178l0.026 0.007 9.351-2.518 2.159-24.668z"></path>
<path fill="#fff" style="fill: var(--color5, #fff)" d="M15.99 9.563l-8.271 3.444 0.274 3.41 16.502-7.056 0.353-3.489-8.859 3.689z"></path>
<path fill="#000" style="fill: var(--color7, #000)" d="M7.719 13.008l0.274 3.41 7.996-3.419v-3.436z"></path>
<path fill="#000" style="fill: var(--color7, #000)" d="M24.848 5.874l-8.859 3.689v3.436l8.506-3.637z"></path>
<path fill="#000" style="fill: var(--color7, #000)" d="M7.732 13.008l0.274 3.41 12.269 0.039-0.274 4.547-4.037 1.137-3.881-0.98-0.235-2.822h-3.606l0.47 5.449 7.291 2.156 7.252-2.117 0.941-10.818z"></path>
<path fill="#000" style="fill: var(--color7, #000)" opacity="0.05098" d="M15.99 13.008h-8.271l0.274 3.41 7.996 0.026v-3.436zM15.99 22.13l-0.039 0.011-3.881-0.98-0.235-2.822h-3.606l0.47 5.449 7.291 2.156v-3.813z"></path>
<path fill="#000" style="fill: var(--color7, #000)" d="M6.974 5.874h17.874l-0.353 3.489h-17.090l-0.431-3.489z"></path>
<path fill="#000" style="fill: var(--color7, #000)" opacity="0.05098" d="M15.99 5.874h-9.015l0.431 3.489h8.584z"></path>
</symbol>
<symbol id="icon-figma" viewBox="0 0 32 32">
<path fill="#0acf83" style="fill: var(--color13, #0acf83)" d="M10.661 31.969c2.94 0 5.328-2.386 5.328-5.328v-5.328h-5.328c-2.94 0-5.328 2.386-5.328 5.328s2.388 5.328 5.328 5.328v0 0z"></path>
<path fill="#a259ff" style="fill: var(--color14, #a259ff)" d="M5.333 15.984c0-2.94 2.388-5.328 5.328-5.328h5.328v10.656h-5.328c-2.94 0-5.328-2.386-5.328-5.328v0 0z"></path>
<path fill="#f24e1e" style="fill: var(--color15, #f24e1e)" d="M5.333 5.328c0-2.94 2.388-5.328 5.328-5.328h5.328v10.656h-5.328c-2.94 0-5.328-2.386-5.328-5.328v0z"></path>
<path fill="#ff7262" style="fill: var(--color16, #ff7262)" d="M15.99 0h5.328c2.94 0 5.328 2.388 5.328 5.328 0 2.942-2.386 5.328-5.328 5.328h-5.328v-10.656z"></path>
<path fill="#1abcfe" style="fill: var(--color17, #1abcfe)" d="M26.646 15.984c0 2.942-2.386 5.328-5.328 5.328s-5.328-2.386-5.328-5.328c0-2.94 2.386-5.328 5.328-5.328s5.328 2.388 5.328 5.328v0z"></path>
</symbol>
<symbol id="icon-git" viewBox="0 0 32 32">
<path fill="#f05133" style="fill: var(--color18, #f05133)" d="M31.398 14.574l-13.973-13.97c-0.805-0.805-2.11-0.805-2.914 0l-2.901 2.901 3.68 3.68c0.857-0.289 1.836-0.096 2.518 0.586 0.685 0.685 0.878 1.675 0.581 2.534l3.547 3.547c0.859-0.297 1.849-0.104 2.534 0.581 0.958 0.958 0.958 2.511 0 3.466-0.958 0.958-2.511 0.958-3.469 0-0.721-0.721-0.898-1.779-0.534-2.667l-3.308-3.308v8.706c0.234 0.115 0.453 0.271 0.648 0.464 0.958 0.958 0.958 2.511 0 3.469s-2.511 0.958-3.466 0c-0.958-0.958-0.958-2.511 0-3.469 0.237-0.237 0.51-0.414 0.802-0.534v-8.787c-0.292-0.12-0.565-0.297-0.802-0.534-0.727-0.724-0.901-1.789-0.529-2.68l-3.63-3.63-9.579 9.582c-0.805 0.805-0.805 2.11 0 2.914l13.973 13.973c0.805 0.805 2.11 0.805 2.914 0l13.907-13.905c0.805-0.807 0.805-2.112 0-2.919v0 0zM31.398 14.574v0 0 0z"></path>
</symbol>
<symbol id="icon-html" viewBox="0 0 32 32">
<path fill="#e44d26" style="fill: var(--color19, #e44d26)" d="M30.14 0l-2.568 28.769-11.543 3.2-11.512-3.195-2.565-28.774h28.189z"></path>
<path fill="#f16529" style="fill: var(--color20, #f16529)" d="M16.044 29.523l9.329-2.586 2.193-24.585h-11.523v27.171z"></path>
<path fill="#ebebeb" style="fill: var(--color21, #ebebeb)" d="M11.054 9.41h4.993v-3.528h-8.851l0.083 0.947 0.866 9.725h7.896v-3.53h-4.665l-0.323-3.614zM11.848 18.318h-3.541l0.494 5.541 7.23 2.006 0.016-0.005v-3.671l-0.016 0.005-3.931-1.061-0.252-2.815z"></path>
<path fill="#fff" style="fill: var(--color5, #fff)" d="M16.034 16.554h4.345l-0.408 4.576-3.936 1.061v3.671l7.235-2.006 0.052-0.596 0.83-9.29 0.086-0.947h-8.203v3.53zM16.034 9.402v0.008h8.523l0.070-0.793 0.161-1.79 0.083-0.947h-8.838v3.523z"></path>
</symbol>
<symbol id="icon-javascript" viewBox="0 0 32 32">
<path fill="#f7df1e" style="fill: var(--color22, #f7df1e)" d="M0 0h32v32h-32v-32z"></path>
<path fill="#000" style="fill: var(--color7, #000)" d="M8.414 26.742l2.448-1.482c0.471 0.839 0.901 1.547 1.932 1.547 0.987 0 1.612-0.385 1.612-1.891v-10.227h3.008v10.268c0 3.115-1.826 4.531-4.49 4.531-2.406 0-3.802-1.245-4.51-2.747v0 0zM19.047 26.419l2.448-1.417c0.646 1.052 1.482 1.826 2.964 1.826 1.245 0 2.042-0.622 2.042-1.482 0-1.031-0.815-1.396-2.19-1.997l-0.753-0.323c-2.169-0.924-3.609-2.083-3.609-4.531 0-2.255 1.719-3.974 4.404-3.974 1.911 0 3.286 0.667 4.273 2.406l-2.341 1.503c-0.516-0.924-1.073-1.289-1.932-1.289-0.88 0-1.44 0.557-1.44 1.289 0 0.901 0.557 1.268 1.846 1.826l0.753 0.323c2.557 1.096 3.995 2.214 3.995 4.727 0 2.706-2.128 4.188-4.984 4.188-2.789 0-4.594-1.333-5.474-3.073v0 0zM19.047 26.419v0 0 0z"></path>
</symbol>
<symbol id="icon-jquery" viewBox="0 0 32 32">
<path fill="#21609b" style="fill: var(--color23, #21609b)" d="M31.227 23.638l-0.143 0.372c-2.438 4.748-6.759 7.662-12.922 7.789-2.88 0.060-5.627-0.679-7.42-1.483-3.871-1.738-7.126-4.964-8.903-8.408-2.55-4.938-3.010-11.809 2.292-16.939 0.081 0-0.643 1.114-0.562 1.114l-0.146 0.476c-3.822 11.962 7.951 22.213 19.393 21.042 2.753-0.286 6.259-1.793 8.411-3.962v0 0zM31.227 23.638v0 0 0z"></path>
<path fill="#21609b" style="fill: var(--color23, #21609b)" d="M24.302 18.693c2.88 0.021 5.885-1.327 7.667-3.216-1.558 3.954-6.070 6.496-12.118 5.687-5.065-0.679-9.889-5.776-10.386-10.883-0.364-3.718 0.931-5.934 3.067-8.627-0.741 1.407-1.020 2.492-1.087 3.184-0.814 8.044 6.421 13.812 12.857 13.854v0 0zM24.302 18.693v0 0 0z"></path>
<path fill="#21609b" style="fill: var(--color23, #21609b)" d="M31.68 8.708c-0.447 1.028-3.023 2.966-4.163 3.208-4.506 0.96-7.391-1.176-8.903-3.608-0.224-0.364-0.64-1.355-0.715-1.608-0.585-1.993-0.317-5.008 1.431-6.569-0.526 1.483-0.604 3.208-0.325 4.329 0.169 0.676 0.679 1.86 1.192 2.604 0.931 1.355 1.522 1.683 2.721 2.404 0.539 0.323 1.119 0.583 1.368 0.656 1.134 0.333 3.53 1.212 7.394-1.415v0 0zM31.68 8.708v0 0 0z"></path>
</symbol>
<symbol id="icon-live" viewBox="0 0 32 32">
<path  d="M1.764 9.394v0 0c-0.97 0-1.764 0.793-1.764 1.761v12.059c0 0.97 0.796 1.764 1.764 1.764h25.569c0.968 0 1.764-0.796 1.764-1.764v-8.060c-0.185 0.016-0.372 0.018-0.562 0.013v0.003c-0.094 0-0.185-0.008-0.273-0.021-1.272-0.112-2.393-0.708-3.19-1.592-0.833-0.926-1.311-2.172-1.241-3.515 0.013-0.219 0.039-0.437 0.078-0.648h-22.145zM28.87 7.030v0c-1.806-0.096-3.346 1.29-3.442 3.093-0.096 1.806 1.288 3.346 3.093 3.442s3.346-1.288 3.442-3.093c0.096-1.806-1.288-3.346-3.093-3.442zM28.803 8.25c0.567 0.031 1.067 0.286 1.418 0.676s0.552 0.913 0.523 1.48c-0.031 0.567-0.286 1.067-0.676 1.418s-0.913 0.554-1.48 0.523c-0.567-0.031-1.069-0.286-1.418-0.676-0.351-0.39-0.552-0.913-0.523-1.48 0.031-0.567 0.286-1.069 0.676-1.418 0.393-0.351 0.916-0.554 1.48-0.523v0zM7.324 12.766v7.074h1.465v1.767h-3.902v-8.84h2.438zM12.072 12.766v8.84h-2.435v-8.84h2.435zM19.065 12.766l-1.231 8.84h-3.684l-1.41-8.84h2.565c0.289 2.438 0.499 4.501 0.632 6.187 0.13-1.704 0.265-3.216 0.401-4.537l0.161-1.649h2.565zM19.736 12.766h4.056v1.767h-1.618v1.688h1.514v1.675h-1.514v1.946h1.785v1.767h-4.222v-8.843z"></path>
<path fill="#242424" style="fill: var(--color25, #242424)" d="M28.764 9.025c0.702 0.036 1.241 0.637 1.205 1.337-0.036 0.702-0.637 1.241-1.337 1.205-0.702-0.036-1.241-0.637-1.205-1.337s0.635-1.241 1.337-1.205v0z"></path>
</symbol>
<symbol id="icon-node" viewBox="0 0 32 32">
<path fill="#689f63" style="fill: var(--color26, #689f63)" d="M19.624 22.655c-5.125 0-6.2-2.352-6.2-4.326 0-0.187 0.151-0.338 0.338-0.338h1.514c0.166 0 0.307 0.122 0.333 0.286 0.229 1.543 0.908 2.321 4.009 2.321 2.469 0 3.517-0.557 3.517-1.868 0-0.754-0.299-1.314-4.134-1.688-3.208-0.317-5.19-1.022-5.19-3.59 0-2.362 1.993-3.77 5.333-3.77 3.752 0 5.609 1.301 5.843 4.1 0.008 0.096-0.026 0.19-0.091 0.26-0.065 0.068-0.156 0.109-0.25 0.109h-1.519c-0.159 0-0.297-0.112-0.328-0.263-0.367-1.621-1.251-2.141-3.66-2.141-2.695 0-3.007 0.939-3.007 1.642 0 0.853 0.369 1.103 4.006 1.584 3.601 0.479 5.31 1.153 5.31 3.684 0 2.552-2.128 4.014-5.841 4.014l0.016-0.016zM16.005 31.969c-0.429 0-0.853-0.112-1.228-0.328l-3.91-2.315c-0.585-0.328-0.299-0.442-0.107-0.51 0.778-0.273 0.937-0.333 1.769-0.806 0.088-0.049 0.203-0.031 0.291 0.021l3.005 1.782c0.109 0.060 0.263 0.060 0.364 0l11.715-6.762c0.109-0.062 0.18-0.187 0.18-0.317v-13.515c0-0.135-0.070-0.255-0.182-0.323l-11.713-6.756c-0.109-0.065-0.252-0.065-0.362 0l-11.707 6.756c-0.114 0.065-0.185 0.19-0.185 0.32v13.518c0 0.13 0.070 0.252 0.182 0.315l3.208 1.852c1.741 0.872 2.807-0.156 2.807-1.186v-13.344c0-0.19 0.148-0.338 0.341-0.338h1.483c0.185 0 0.338 0.146 0.338 0.338v13.349c0 2.323-1.267 3.655-3.468 3.655-0.676 0-1.212 0-2.7-0.734l-3.078-1.772c-0.76-0.44-1.228-1.259-1.228-2.136v-13.518c0-0.879 0.468-1.701 1.228-2.136l11.726-6.764c0.741-0.419 1.727-0.419 2.464 0l11.713 6.767c0.757 0.437 1.228 1.254 1.228 2.136v13.518c0 0.877-0.471 1.694-1.228 2.136l-11.713 6.764c-0.375 0.216-0.801 0.328-1.233 0.328v0.005zM16.005 31.969v0 0 0z"></path>
</symbol>
<symbol id="icon-react" viewBox="0 0 32 32">
<path fill="#00d8ff" style="fill: var(--color27, #00d8ff)" d="M31.969 16.060c0-2.118-2.651-4.124-6.717-5.37 0.939-4.144 0.52-7.441-1.316-8.497-0.424-0.247-0.918-0.364-1.459-0.364v1.454c0.299 0 0.541 0.060 0.744 0.169 0.887 0.507 1.27 2.443 0.97 4.933-0.073 0.611-0.19 1.257-0.333 1.915-1.277-0.312-2.672-0.554-4.137-0.71-0.879-1.205-1.793-2.3-2.711-3.257 2.123-1.977 4.116-3.057 5.471-3.057v-1.454c-1.793 0-4.137 1.277-6.509 3.494-2.373-2.204-4.717-3.468-6.509-3.468v1.454c1.348 0 3.348 1.074 5.474 3.036-0.913 0.957-1.824 2.045-2.69 3.252-1.473 0.156-2.867 0.398-4.144 0.715-0.151-0.65-0.26-1.283-0.338-1.889-0.307-2.49 0.073-4.425 0.952-4.941 0.195-0.117 0.45-0.169 0.749-0.169v-1.452c-0.546 0-1.043 0.117-1.473 0.364-1.832 1.056-2.243 4.347-1.296 8.479-4.059 1.249-6.697 3.249-6.697 5.362 0 2.118 2.651 4.124 6.717 5.37-0.939 4.144-0.52 7.441 1.316 8.497 0.424 0.247 0.918 0.364 1.467 0.364 1.793 0 4.137-1.277 6.509-3.494 2.373 2.204 4.717 3.468 6.509 3.468 0.546 0 1.043-0.117 1.473-0.364 1.832-1.056 2.243-4.347 1.296-8.479 4.043-1.244 6.681-3.252 6.681-5.362v0zM18.955 16.060v0c0 1.644-1.332 2.976-2.979 2.979-1.647 0-2.979-1.332-2.979-2.979s1.335-2.979 2.979-2.979c1.647 0 2.979 1.335 2.979 2.979zM9.454 1.847v0 0 0zM23.485 11.713c-0.242 0.84-0.541 1.707-0.879 2.573-0.268-0.52-0.546-1.043-0.853-1.564-0.299-0.52-0.619-1.030-0.939-1.525 0.926 0.138 1.819 0.307 2.672 0.515v0zM20.501 18.654c-0.507 0.879-1.030 1.714-1.571 2.49-0.97 0.086-1.954 0.13-2.945 0.13-0.983 0-1.967-0.047-2.932-0.125-0.541-0.775-1.069-1.603-1.577-2.477-0.494-0.853-0.944-1.72-1.355-2.594 0.403-0.874 0.861-1.746 1.348-2.599 0.507-0.879 1.030-1.714 1.571-2.49 0.97-0.086 1.954-0.13 2.945-0.13 0.983 0 1.967 0.047 2.932 0.125 0.541 0.775 1.069 1.603 1.577 2.477 0.494 0.853 0.944 1.72 1.355 2.594-0.411 0.872-0.859 1.743-1.348 2.599v0zM22.606 17.806c0.351 0.874 0.65 1.746 0.9 2.594-0.853 0.208-1.753 0.385-2.685 0.52 0.32-0.502 0.637-1.017 0.939-1.545 0.297-0.52 0.578-1.048 0.846-1.569v0zM15.997 24.757c-0.606-0.624-1.212-1.322-1.811-2.084 0.585 0.026 1.186 0.047 1.793 0.047 0.611 0 1.218-0.013 1.811-0.047-0.588 0.762-1.194 1.459-1.793 2.084v0zM11.151 20.92c-0.926-0.138-1.819-0.307-2.672-0.515 0.242-0.84 0.541-1.707 0.879-2.573 0.268 0.52 0.546 1.043 0.853 1.564 0.307 0.523 0.619 1.030 0.939 1.525v0zM15.964 7.36c0.606 0.624 1.212 1.322 1.811 2.084-0.585-0.026-1.186-0.047-1.793-0.047-0.611 0-1.218 0.013-1.811 0.047 0.588-0.762 1.194-1.46 1.793-2.084v0zM11.143 11.197c-0.32 0.502-0.637 1.017-0.939 1.545-0.299 0.52-0.58 1.043-0.848 1.564-0.351-0.874-0.65-1.746-0.9-2.594 0.856-0.203 1.756-0.377 2.687-0.515v0zM5.245 19.356c-2.308-0.983-3.798-2.274-3.798-3.296s1.493-2.321 3.798-3.296c0.559-0.242 1.173-0.455 1.806-0.658 0.372 1.277 0.861 2.607 1.467 3.967-0.598 1.355-1.082 2.677-1.447 3.949-0.645-0.203-1.259-0.424-1.826-0.666v0zM8.752 28.667c-0.887-0.507-1.27-2.443-0.97-4.933 0.073-0.611 0.19-1.257 0.333-1.915 1.277 0.312 2.672 0.554 4.137 0.71 0.879 1.205 1.793 2.3 2.711 3.257-2.126 1.975-4.118 3.057-5.474 3.057-0.294-0.008-0.541-0.065-0.736-0.177v0zM24.208 23.703c0.307 2.49-0.073 4.425-0.952 4.941-0.195 0.117-0.45 0.169-0.749 0.169-1.348 0-3.348-1.074-5.474-3.036 0.913-0.957 1.824-2.045 2.69-3.252 1.473-0.156 2.867-0.398 4.144-0.718 0.151 0.658 0.268 1.29 0.341 1.897v0zM26.716 19.356c-0.559 0.242-1.173 0.455-1.806 0.658-0.372-1.277-0.861-2.607-1.467-3.967 0.598-1.355 1.082-2.677 1.447-3.949 0.645 0.203 1.257 0.424 1.832 0.663 2.308 0.983 3.798 2.274 3.798 3.296-0.005 1.025-1.496 2.321-3.804 3.299v0z"></path>
</symbol>
<symbol id="icon-sass" viewBox="0 0 32 32">
<path fill="#cf649a" style="fill: var(--color28, #cf649a)" d="M27.52 17.793c-1.119 0.005-2.087 0.276-2.898 0.674-0.299-0.593-0.598-1.111-0.65-1.499-0.057-0.45-0.125-0.723-0.057-1.262 0.068-0.536 0.38-1.298 0.38-1.361-0.005-0.057-0.068-0.33-0.713-0.338-0.643-0.005-1.199 0.125-1.262 0.294s-0.187 0.557-0.268 0.955c-0.112 0.588-1.285 2.667-1.954 3.759-0.219-0.424-0.406-0.799-0.442-1.098-0.057-0.45-0.125-0.723-0.057-1.262 0.068-0.536 0.38-1.298 0.38-1.361-0.005-0.057-0.068-0.33-0.713-0.338-0.643-0.005-1.199 0.125-1.262 0.294s-0.13 0.567-0.268 0.955c-0.13 0.388-1.691 3.858-2.097 4.764-0.206 0.463-0.388 0.83-0.518 1.080s-0.005 0.018-0.018 0.044c-0.112 0.213-0.174 0.33-0.174 0.33v0.005c-0.088 0.156-0.182 0.307-0.224 0.307-0.031 0-0.094-0.419 0.013-0.994 0.232-1.205 0.793-3.086 0.786-3.153 0-0.031 0.107-0.362-0.362-0.531-0.455-0.169-0.619 0.112-0.656 0.112s-0.068 0.099-0.068 0.099 0.505-2.118-0.968-2.118c-0.924 0-2.198 1.004-2.828 1.923-0.401 0.219-1.249 0.682-2.149 1.173-0.343 0.187-0.7 0.388-1.035 0.567l-0.068-0.075c-1.787-1.897-5.091-3.244-4.954-5.804 0.049-0.931 0.375-3.385 6.345-6.356 4.888-2.435 8.804-1.766 9.486-0.281 0.968 2.123-2.092 6.070-7.175 6.637-1.936 0.219-2.953-0.531-3.21-0.812-0.268-0.294-0.307-0.307-0.406-0.25-0.161 0.088-0.062 0.349 0 0.505 0.151 0.393 0.775 1.093 1.837 1.441 0.931 0.307 3.203 0.473 5.95-0.588 3.078-1.192 5.482-4.503 4.777-7.269-0.718-2.812-5.388-3.739-9.803-2.17-2.628 0.937-5.476 2.399-7.524 4.316-2.435 2.271-2.823 4.256-2.661 5.081 0.567 2.942 4.62 4.857 6.244 6.275-0.081 0.044-0.156 0.088-0.224 0.125-0.812 0.401-3.902 2.016-4.678 3.728-0.874 1.936 0.138 3.33 0.812 3.517 2.087 0.58 4.222-0.463 5.378-2.18 1.15-1.717 1.012-3.947 0.481-4.964l-0.018-0.036 0.637-0.375c0.411-0.245 0.817-0.468 1.173-0.661-0.2 0.544-0.343 1.186-0.419 2.123-0.088 1.098 0.362 2.524 0.955 3.086 0.263 0.245 0.575 0.25 0.767 0.25 0.687 0 0.999-0.567 1.342-1.249 0.424-0.83 0.799-1.793 0.799-1.793s-0.468 2.604 0.812 2.604c0.468 0 0.937-0.606 1.15-0.918v0.005c0 0 0.013-0.018 0.036-0.062 0.026-0.039 0.052-0.078 0.075-0.12v-0.013c0.187-0.325 0.606-1.067 1.231-2.297 0.806-1.587 1.579-3.572 1.579-3.572s0.075 0.486 0.307 1.285c0.138 0.474 0.437 0.994 0.669 1.499-0.187 0.263-0.299 0.411-0.299 0.411l0.005 0.005c-0.151 0.2-0.317 0.411-0.494 0.624-0.637 0.762-1.4 1.629-1.499 1.878-0.12 0.294-0.094 0.513 0.138 0.687 0.169 0.125 0.468 0.151 0.786 0.125 0.575-0.036 0.973-0.182 1.173-0.268 0.312-0.112 0.669-0.281 1.012-0.531 0.624-0.463 1.004-1.119 0.968-1.993-0.018-0.481-0.174-0.955-0.369-1.405 0.057-0.081 0.112-0.161 0.169-0.25 0.986-1.441 1.748-3.028 1.748-3.028s0.075 0.486 0.307 1.285c0.12 0.406 0.356 0.848 0.567 1.285-0.924 0.754-1.504 1.629-1.704 2.204-0.369 1.061-0.081 1.543 0.463 1.655 0.245 0.049 0.593-0.062 0.856-0.174 0.325-0.107 0.718-0.286 1.080-0.557 0.624-0.463 1.223-1.106 1.192-1.972-0.018-0.401-0.125-0.794-0.268-1.168 0.786-0.325 1.806-0.513 3.096-0.356 2.779 0.325 3.327 2.061 3.223 2.784-0.107 0.723-0.687 1.124-0.879 1.249-0.193 0.12-0.255 0.161-0.237 0.25 0.026 0.13 0.112 0.125 0.281 0.099 0.232-0.036 1.462-0.593 1.512-1.93 0.075-1.707-1.556-3.58-4.446-3.562v0 0zM6.090 25.017c-0.918 1.004-2.211 1.387-2.76 1.061-0.593-0.343-0.362-1.824 0.767-2.89 0.687-0.65 1.579-1.249 2.167-1.618 0.13-0.081 0.33-0.2 0.567-0.343 0.036-0.026 0.062-0.036 0.062-0.036 0.044-0.026 0.094-0.057 0.143-0.088 0.419 1.525 0.021 2.859-0.947 3.915v0zM12.803 20.454c-0.317 0.78-0.994 2.786-1.4 2.672-0.349-0.094-0.562-1.61-0.068-3.109 0.25-0.754 0.78-1.655 1.093-2.003 0.505-0.562 1.056-0.749 1.192-0.518 0.164 0.297-0.617 2.469-0.817 2.958v0zM18.341 23.1c-0.138 0.068-0.263 0.12-0.317 0.081-0.044-0.026 0.057-0.12 0.057-0.12s0.692-0.744 0.968-1.087c0.156-0.2 0.343-0.432 0.544-0.692v0.075c-0.003 0.9-0.864 1.501-1.251 1.743v0zM22.613 22.127c-0.099-0.075-0.088-0.307 0.25-1.030 0.13-0.286 0.432-0.767 0.95-1.223 0.062 0.187 0.099 0.369 0.094 0.536-0.008 1.124-0.806 1.543-1.293 1.717v0 0z"></path>
</symbol>
<symbol id="icon-vscode" viewBox="0 0 32 32">
<path fill="#0065a9" style="fill: var(--color29, #0065a9)" d="M30.867 3.455l-6.594-3.175c-0.762-0.367-1.675-0.212-2.274 0.386l-21.585 19.68c-0.58 0.53-0.58 1.444 0.001 1.973l1.762 1.602c0.475 0.433 1.191 0.464 1.702 0.076l25.994-19.719c0.872-0.661 2.125-0.040 2.125 1.055v-0.076c0-0.769-0.44-1.47-1.133-1.803z"></path>
<path fill="#007acc" style="fill: var(--color30, #007acc)" d="M30.867 28.545l-6.594 3.175c-0.762 0.368-1.675 0.212-2.274-0.386l-21.585-19.68c-0.58-0.529-0.58-1.444 0.001-1.971l1.762-1.603c0.475-0.433 1.191-0.464 1.702-0.076l25.994 19.718c0.872 0.661 2.125 0.040 2.125-1.055v0.076c0 0.769-0.44 1.47-1.133 1.802z"></path>
<path fill="#1f9cf0" style="fill: var(--color31, #1f9cf0)" d="M24.275 31.72c-0.764 0.367-1.675 0.212-2.275-0.387 0.738 0.738 2 0.215 2-0.829v-29.009c0-1.044-1.262-1.566-2-0.829 0.599-0.599 1.511-0.754 2.275-0.388l6.593 3.17c0.692 0.334 1.134 1.034 1.134 1.802v21.496c0 0.769-0.44 1.469-1.134 1.802l-6.593 3.17z"></path>
<path fill="#000" style="fill: var(--color7, #000)" opacity="0.25" d="M22.672 31.781c-0.253-0.098-0.486-0.249-0.686-0.448l-12.613-11.506-5.494 4.17c-0.511 0.387-1.226 0.356-1.701-0.076l-1.762-1.602c-0.581-0.529-0.581-1.442-0.001-1.973l4.765-4.346-4.765-4.346c-0.58-0.53-0.58-1.444 0.001-1.973l1.762-1.602c0.475-0.433 1.19-0.465 1.701-0.076l5.494 4.171 12.613-11.506c0.075-0.075 0.155-0.142 0.239-0.204 0.586-0.426 1.367-0.505 2.035-0.184l6.589 3.17c0.692 0.334 1.133 1.034 1.133 1.803v21.495c0 0.769-0.44 1.47-1.133 1.802l-6.589 3.17c-0.509 0.245-1.084 0.258-1.587 0.061zM23.985 8.736l-9.57 7.264 9.57 7.265v-14.529z"></path>
</symbol>
<symbol id="icon-windows" viewBox="0 0 32 32">
<path fill="#0078d6" style="fill: var(--color32, #0078d6)" d="M0.13 4.561v10.802h13.026v-12.592l-13.026 1.79zM14.728 2.518l17.262-2.518v15.253h-17.262v-12.735zM0.13 16.692v10.802l13.026 1.824v-12.626h-13.026zM14.728 16.861h17.262v15.108l-17.262-2.446v-12.662z"></path>
</symbol>
</defs>
</svg>
